# xmcd
#
# Track frame offsets: 
#        150
#        21520
#        43810
#        65806
#        87197
#        108885
#        128463
#        148043
#        172277
#        185047
#        207274
#        227901
#        244176
#
# Disc length: 3543 seconds
#
# Revision: 0
# Processed by: cddbd v1.5.2PL0 Copyright (c) Steve Scherf et al.
# Submitted via: ExactAudioCopy v0.99pb4
#
DISCID=c30dd50d
DTITLE=Ben E. King - Heart And Soul
DYEAR=2010
DGENRE=Soul
TTITLE0=Heart And Soul
TTITLE1=Little Girl Blue
TTITLE2=Since I Fell For You
TTITLE3=I Remember You
TTITLE4=Grey December
TTITLE5=I Only Have Eyes For You
TTITLE6=The Touch Of Your Lips
TTITLE7=My Funny Valentine
TTITLE8=This Is Always
TTITLE9=When I Fall In Love
TTITLE10=For All We Know
TTITLE11=That's All
TTITLE12=That Old Feeling (bonus track)
EXTD=
EXTT0=
EXTT1=
EXTT2=
EXTT3=
EXTT4=
EXTT5=
EXTT6=
EXTT7=
EXTT8=
EXTT9=
EXTT10=
EXTT11=
EXTT12=
PLAYORDER=
